<svg xmlns="http://www.w3.org/2000/svg" version="1.1" viewBox="648 872 304 536"><path d="M 648 896 L 648 920 652 920 L 656 920 656 968 L 656 1016 672 1016 L 688 1016 688 1048 L 688 1080 700 1080 L 712 1080 712 1108 L 712 1136 724 1136 L 736 1136 736 1140 L 736 1144 724 1144 L 712 1144 712 1172 L 712 1200 700 1200 L 688 1200 688 1232 L 688 1264 672 1264 L 656 1264 656 1312 L 656 1360 652 1360 L 648 1360 648 1384 L 648 1408 800 1408 L 952 1408 952 1384 L 952 1360 948 1360 L 944 1360 944 1312 L 944 1264 928 1264 L 912 1264 912 1232 L 912 1200 900 1200 L 888 1200 888 1172 L 888 1144 876 1144 L 864 1144 864 1140 L 864 1136 876 1136 L 888 1136 888 1108 L 888 1080 900 1080 L 912 1080 912 1048 L 912 1016 928 1016 L 944 1016 944 968 L 944 920 948 920 L 952 920 952 896 L 952 872 800 872 L 648 872 648 896 M 656 896 L 656 912 660 912 L 664 912 664 960 L 664 1008 680 1008 L 696 1008 696 1040 L 696 1072 708 1072 L 720 1072 720 1100 L 720 1128 732 1128 L 744 1128 744 1140 L 744 1152 732 1152 L 720 1152 720 1180 L 720 1208 708 1208 L 696 1208 696 1240 L 696 1272 680 1272 L 664 1272 664 1320 L 664 1368 660 1368 L 656 1368 656 1384 L 656 1400 800 1400 L 944 1400 944 1384 L 944 1368 940 1368 L 936 1368 936 1320 L 936 1272 920 1272 L 904 1272 904 1240 L 904 1208 892 1208 L 880 1208 880 1180 L 880 1152 868 1152 L 856 1152 856 1140 L 856 1128 868 1128 L 880 1128 880 1100 L 880 1072 892 1072 L 904 1072 904 1040 L 904 1008 920 1008 L 936 1008 936 960 L 936 912 940 912 L 944 912 944 896 L 944 880 800 880 L 656 880 656 896" stroke="none" fill="#000000" fill-rule="evenodd"/><path d="M 656 884 L 656 888 660 888 L 664 888 664 892 L 664 896 668 896 L 672 896 672 892 L 672 888 668 888 L 664 888 664 884 L 664 880 660 880 L 656 880 656 884 M 936 884 L 936 888 932 888 L 928 888 928 892 L 928 896 932 896 L 936 896 936 892 L 936 888 940 888 L 944 888 944 884 L 944 880 940 880 L 936 880 936 884 M 664 1388 L 664 1392 660 1392 L 656 1392 656 1396 L 656 1400 660 1400 L 664 1400 664 1396 L 664 1392 668 1392 L 672 1392 672 1388 L 672 1384 668 1384 L 664 1384 664 1388 M 928 1388 L 928 1392 932 1392 L 936 1392 936 1396 L 936 1400 940 1400 L 944 1400 944 1396 L 944 1392 940 1392 L 936 1392 936 1388 L 936 1384 932 1384 L 928 1384 928 1388" stroke="none" fill="#c3aa0f" fill-rule="evenodd"/><path d="M 720 968 L 720 976 724 976 L 728 976 728 984 L 728 992 732 992 L 736 992 736 1004 L 736 1016 740 1016 L 744 1016 744 1032 L 744 1048 748 1048 L 752 1048 752 1060 L 752 1072 756 1072 L 760 1072 760 1080 L 760 1088 764 1088 L 768 1088 768 1092 L 768 1096 772 1096 L 776 1096 776 1100 L 776 1104 780 1104 L 784 1104 784 1112 L 784 1120 788 1120 L 792 1120 792 1224 L 792 1328 784 1328 L 776 1328 776 1332 L 776 1336 768 1336 L 760 1336 760 1340 L 760 1344 756 1344 L 752 1344 752 1348 L 752 1352 744 1352 L 736 1352 736 1356 L 736 1360 724 1360 L 712 1360 712 1364 L 712 1368 800 1368 L 888 1368 888 1364 L 888 1360 876 1360 L 864 1360 864 1356 L 864 1352 860 1352 L 856 1352 856 1348 L 856 1344 848 1344 L 840 1344 840 1340 L 840 1336 828 1336 L 816 1336 816 1332 L 816 1328 812 1328 L 808 1328 808 1224 L 808 1120 812 1120 L 816 1120 816 1112 L 816 1104 820 1104 L 824 1104 824 1100 L 824 1096 828 1096 L 832 1096 832 1092 L 832 1088 836 1088 L 840 1088 840 1080 L 840 1072 844 1072 L 848 1072 848 1060 L 848 1048 852 1048 L 856 1048 856 1032 L 856 1016 860 1016 L 864 1016 864 1004 L 864 992 868 992 L 872 992 872 984 L 872 976 876 976 L 880 976 880 968 L 880 960 800 960 L 720 960 720 968" stroke="none" fill="#94865c" fill-rule="evenodd"/><path d="M 704 916 L 704 920 700 920 L 696 920 696 960 L 696 1000 700 1000 L 704 1000 704 1004 L 704 1008 712 1008 L 720 1008 720 1012 L 720 1016 724 1016 L 728 1016 728 1044 L 728 1072 736 1072 L 744 1072 744 1076 L 744 1080 748 1080 L 752 1080 752 1096 L 752 1112 760 1112 L 768 1112 768 1116 L 768 1120 772 1120 L 776 1120 776 1132 L 776 1144 772 1144 L 768 1144 768 1148 L 768 1152 760 1152 L 752 1152 752 1176 L 752 1200 748 1200 L 744 1200 744 1204 L 744 1208 736 1208 L 728 1208 728 1236 L 728 1264 724 1264 L 720 1264 720 1268 L 720 1272 712 1272 L 704 1272 704 1316 L 704 1360 720 1360 L 736 1360 736 1356 L 736 1352 744 1352 L 752 1352 752 1348 L 752 1344 756 1344 L 760 1344 760 1340 L 760 1336 768 1336 L 776 1336 776 1332 L 776 1328 784 1328 L 792 1328 792 1224 L 792 1120 788 1120 L 784 1120 784 1112 L 784 1104 780 1104 L 776 1104 776 1100 L 776 1096 772 1096 L 768 1096 768 1092 L 768 1088 764 1088 L 760 1088 760 1080 L 760 1072 756 1072 L 752 1072 752 1060 L 752 1048 748 1048 L 744 1048 744 1032 L 744 1016 740 1016 L 736 1016 736 1004 L 736 992 732 992 L 728 992 728 984 L 728 976 724 976 L 720 976 720 968 L 720 960 800 960 L 880 960 880 968 L 880 976 876 976 L 872 976 872 984 L 872 992 868 992 L 864 992 864 1004 L 864 1016 860 1016 L 856 1016 856 1032 L 856 1048 852 1048 L 848 1048 848 1060 L 848 1072 844 1072 L 840 1072 840 1080 L 840 1088 836 1088 L 832 1088 832 1092 L 832 1096 828 1096 L 824 1096 824 1100 L 824 1104 820 1104 L 816 1104 816 1112 L 816 1120 812 1120 L 808 1120 808 1224 L 808 1328 812 1328 L 816 1328 816 1332 L 816 1336 828 1336 L 840 1336 840 1340 L 840 1344 844 1344 L 848 1344 848 1340 L 848 1336 852 1336 L 856 1336 856 1340 L 856 1344 860 1344 L 864 1344 864 1352 L 864 1360 880 1360 L 896 1360 896 1316 L 896 1272 888 1272 L 880 1272 880 1268 L 880 1264 876 1264 L 872 1264 872 1236 L 872 1208 864 1208 L 856 1208 856 1204 L 856 1200 852 1200 L 848 1200 848 1176 L 848 1152 840 1152 L 832 1152 832 1148 L 832 1144 828 1144 L 824 1144 824 1132 L 824 1120 828 1120 L 832 1120 832 1116 L 832 1112 840 1112 L 848 1112 848 1096 L 848 1080 852 1080 L 856 1080 856 1076 L 856 1072 864 1072 L 872 1072 872 1044 L 872 1016 876 1016 L 880 1016 880 1012 L 880 1008 888 1008 L 896 1008 896 1004 L 896 1000 900 1000 L 904 1000 904 960 L 904 920 900 920 L 896 920 896 916 L 896 912 800 912 L 704 912 704 916" stroke="none" fill="#e8e3e8" fill-rule="evenodd"/><path d="M 664 884 L 664 888 660 888 L 656 888 656 900 L 656 912 660 912 L 664 912 664 960 L 664 1008 680 1008 L 696 1008 696 1040 L 696 1072 708 1072 L 720 1072 720 1100 L 720 1128 732 1128 L 744 1128 744 1140 L 744 1152 732 1152 L 720 1152 720 1180 L 720 1208 708 1208 L 696 1208 696 1240 L 696 1272 680 1272 L 664 1272 664 1320 L 664 1368 660 1368 L 656 1368 656 1380 L 656 1392 660 1392 L 664 1392 664 1396 L 664 1400 800 1400 L 936 1400 936 1396 L 936 1392 940 1392 L 944 1392 944 1380 L 944 1368 940 1368 L 936 1368 936 1320 L 936 1272 920 1272 L 904 1272 904 1240 L 904 1208 892 1208 L 880 1208 880 1180 L 880 1152 868 1152 L 856 1152 856 1140 L 856 1128 868 1128 L 880 1128 880 1100 L 880 1072 892 1072 L 904 1072 904 1040 L 904 1008 920 1008 L 936 1008 936 960 L 936 912 940 912 L 944 912 944 900 L 944 888 940 888 L 936 888 936 884 L 936 880 800 880 L 664 880 664 884 M 664 892 L 664 896 668 896 L 672 896 672 892 L 672 888 668 888 L 664 888 664 892 M 928 892 L 928 896 932 896 L 936 896 936 892 L 936 888 932 888 L 928 888 928 892 M 704 916 L 704 920 700 920 L 696 920 696 960 L 696 1000 700 1000 L 704 1000 704 1004 L 704 1008 712 1008 L 720 1008 720 1012 L 720 1016 724 1016 L 728 1016 728 1044 L 728 1072 736 1072 L 744 1072 744 1076 L 744 1080 748 1080 L 752 1080 752 1096 L 752 1112 760 1112 L 768 1112 768 1116 L 768 1120 772 1120 L 776 1120 776 1132 L 776 1144 772 1144 L 768 1144 768 1148 L 768 1152 760 1152 L 752 1152 752 1176 L 752 1200 748 1200 L 744 1200 744 1204 L 744 1208 736 1208 L 728 1208 728 1236 L 728 1264 724 1264 L 720 1264 720 1268 L 720 1272 712 1272 L 704 1272 704 1316 L 704 1360 708 1360 L 712 1360 712 1364 L 712 1368 800 1368 L 888 1368 888 1364 L 888 1360 892 1360 L 896 1360 896 1316 L 896 1272 888 1272 L 880 1272 880 1268 L 880 1264 876 1264 L 872 1264 872 1236 L 872 1208 864 1208 L 856 1208 856 1204 L 856 1200 852 1200 L 848 1200 848 1176 L 848 1152 840 1152 L 832 1152 832 1148 L 832 1144 828 1144 L 824 1144 824 1132 L 824 1120 828 1120 L 832 1120 832 1116 L 832 1112 840 1112 L 848 1112 848 1096 L 848 1080 852 1080 L 856 1080 856 1076 L 856 1072 864 1072 L 872 1072 872 1044 L 872 1016 876 1016 L 880 1016 880 1012 L 880 1008 888 1008 L 896 1008 896 1004 L 896 1000 900 1000 L 904 1000 904 960 L 904 920 900 920 L 896 920 896 916 L 896 912 800 912 L 704 912 704 916 M 664 1388 L 664 1392 668 1392 L 672 1392 672 1388 L 672 1384 668 1384 L 664 1384 664 1388 M 928 1388 L 928 1392 932 1392 L 936 1392 936 1388 L 936 1384 932 1384 L 928 1384 928 1388" stroke="none" fill="#643c24" fill-rule="evenodd"/><path d="" stroke="none" fill="#cfc4ba" fill-rule="evenodd"/></svg>